<svg width="44" height="50" viewBox="0 0 44 50" fill="none" xmlns="http://www.w3.org/2000/svg">
<path d="M17.35 20.9751C15.925 20.9751 14.8 22.2251 14.8 23.7501C14.8 25.2751 15.95 26.5251 17.35 26.5251C18.775 26.5251 19.9 25.2751 19.9 23.7501C19.925 22.2251 18.775 20.9751 17.35 20.9751ZM26.475 20.9751C25.05 20.9751 23.925 22.2251 23.925 23.7501C23.925 25.2751 25.075 26.5251 26.475 26.5251C27.9 26.5251 29.025 25.2751 29.025 23.7501C29.025 22.2251 27.9 20.9751 26.475 20.9751Z" fill="#7289DA"/>
<path d="M38.625 0H5.125C2.3 0 0 2.3 0 5.15V38.95C0 41.8 2.3 44.1 5.125 44.1H33.475L32.15 39.475L35.35 42.45L38.375 45.25L43.75 50V5.15C43.75 2.3 41.45 0 38.625 0ZM28.975 32.65C28.975 32.65 28.075 31.575 27.325 30.625C30.6 29.7 31.85 27.65 31.85 27.65C30.825 28.325 29.85 28.8 28.975 29.125C27.725 29.65 26.525 30 25.35 30.2C22.95 30.65 20.75 30.525 18.875 30.175C17.45 29.9 16.225 29.5 15.2 29.1C14.625 28.875 14 28.6 13.375 28.25C13.3 28.2 13.225 28.175 13.15 28.125C13.1 28.1 13.075 28.075 13.05 28.05C12.6 27.8 12.35 27.625 12.35 27.625C12.35 27.625 13.55 29.625 16.725 30.575C15.975 31.525 15.05 32.65 15.05 32.65C9.525 32.475 7.425 28.85 7.425 28.85C7.425 20.8 11.025 14.275 11.025 14.275C14.625 11.575 18.05 11.65 18.05 11.65L18.3 11.95C13.8 13.25 11.725 15.225 11.725 15.225C11.725 15.225 12.275 14.925 13.2 14.5C15.875 13.325 18 13 18.875 12.925C19.025 12.9 19.15 12.875 19.3 12.875C20.825 12.675 22.55 12.625 24.35 12.825C26.725 13.1 29.275 13.8 31.875 15.225C31.875 15.225 29.9 13.35 25.65 12.05L26 11.65C26 11.65 29.425 11.575 33.025 14.275C33.025 14.275 36.625 20.8 36.625 28.85C36.625 28.85 34.5 32.475 28.975 32.65V32.65Z" fill="#7289DA"/>
</svg>
