<svg width="33" height="33" viewBox="0 0 33 33" fill="none" xmlns="http://www.w3.org/2000/svg">
<path fill-rule="evenodd" clip-rule="evenodd" d="M16.5001 -0.000122301C7.38856 -0.000122301 0 7.38707 0 16.5C0 23.7902 4.72779 29.9752 11.2838 32.1569C12.1084 32.3097 12.4112 31.799 12.4112 31.3632C12.4112 30.9697 12.3959 29.67 12.3888 28.2912C7.79841 29.2893 6.82979 26.3444 6.82979 26.3444C6.07921 24.4372 4.99775 23.9301 4.99775 23.9301C3.5007 22.906 5.11059 22.927 5.11059 22.927C6.76749 23.0432 7.63994 24.6277 7.63994 24.6277C9.11158 27.1499 11.4999 26.4206 12.4415 25.999C12.5896 24.9326 13.0172 24.2044 13.4891 23.7927C9.82417 23.3754 5.97156 21.9606 5.97156 15.6382C5.97156 13.8368 6.61612 12.3649 7.67163 11.2094C7.50031 10.7935 6.93554 9.11555 7.83147 6.84278C7.83147 6.84278 9.21705 6.39932 12.3702 8.53411C13.6864 8.16852 15.0979 7.98518 16.5001 7.9789C17.9024 7.98518 19.315 8.16852 20.6336 8.53411C23.783 6.39932 25.1666 6.84278 25.1666 6.84278C26.0647 9.11555 25.4997 10.7935 25.3284 11.2094C26.3863 12.3649 27.0265 13.8368 27.0265 15.6382C27.0265 21.9756 23.1665 23.3711 19.4923 23.7795C20.0842 24.2916 20.6115 25.2957 20.6115 26.8351C20.6115 29.0429 20.5924 30.8197 20.5924 31.3632C20.5924 31.8023 20.8894 32.3168 21.7258 32.1548C28.2782 29.9705 33 23.7877 33 16.5C33 7.38707 25.6125 -0.000122301 16.5001 -0.000122301" fill="#1B1817"/>
<path d="M6.24945 23.6907C6.21311 23.7729 6.08415 23.7972 5.96666 23.741C5.84698 23.6871 5.77976 23.5754 5.81856 23.4931C5.85408 23.409 5.98332 23.3855 6.10273 23.4415C6.22268 23.4956 6.29098 23.6084 6.24945 23.6907Z" fill="#1B1817"/>
<path d="M6.91776 24.4359C6.83906 24.5089 6.68524 24.475 6.58086 24.3597C6.47293 24.2447 6.45271 24.0908 6.5325 24.0168C6.61365 23.9441 6.76283 23.9783 6.87103 24.093C6.97896 24.2094 7 24.3621 6.91776 24.4359Z" fill="#1B1817"/>
<path d="M7.56835 25.3863C7.46725 25.4566 7.30195 25.3907 7.19976 25.244C7.09866 25.0973 7.09866 24.9213 7.20195 24.8508C7.30441 24.7803 7.46726 24.844 7.57081 24.9893C7.67164 25.1385 7.67163 25.3145 7.56835 25.3863" fill="#1B1817"/>
<path d="M8.45961 26.3044C8.36917 26.4042 8.17654 26.3774 8.03555 26.2413C7.89128 26.1083 7.85111 25.9194 7.94183 25.8197C8.03336 25.7197 8.22708 25.7479 8.36917 25.8828C8.51234 26.0156 8.55606 26.2058 8.45961 26.3044Z" fill="#1B1817"/>
<path d="M9.68916 26.8373C9.64927 26.9666 9.46374 27.0253 9.27685 26.9704C9.09023 26.9139 8.96809 26.7625 9.0058 26.6319C9.0446 26.5018 9.23094 26.4406 9.4192 26.4994C9.60555 26.5556 9.72796 26.7059 9.68916 26.8373Z" fill="#1B1817"/>
<path d="M11.0395 26.9362C11.0442 27.0723 10.8857 27.1852 10.6895 27.1876C10.4923 27.192 10.3327 27.0819 10.3305 26.948C10.3305 26.8106 10.4854 26.6988 10.6827 26.6955C10.8789 26.6917 11.0395 26.801 11.0395 26.9362Z" fill="#1B1817"/>
<path d="M12.2961 26.7223C12.3196 26.8551 12.1832 26.9915 11.9884 27.0278C11.7969 27.0628 11.6196 26.9808 11.5952 26.8491C11.5715 26.713 11.7103 26.5767 11.9015 26.5414C12.0966 26.5076 12.2712 26.5873 12.2961 26.7223" fill="#1B1817"/>
</svg>
