<svg width="33" height="33" viewBox="0 0 33 33" fill="none" xmlns="http://www.w3.org/2000/svg">
<g clip-path="url(#clip0)">
<path d="M32.6783 16.8801C32.6783 15.7585 32.5874 14.6308 32.3933 13.5273H16.83V19.8812H25.7424C25.3726 21.9304 24.1842 23.7432 22.4442 24.8952V29.0179H27.7613C30.8837 26.1441 32.6783 21.9001 32.6783 16.8801Z" fill="#4285F4"/>
<path d="M16.83 33.0011C21.2801 33.0011 25.033 31.5399 27.7673 29.0178L22.4502 24.8951C20.9709 25.9015 19.0611 26.4714 16.8361 26.4714C12.5314 26.4714 8.88161 23.5673 7.57204 19.6628H2.08517V23.9129C4.8862 29.4846 10.5913 33.0011 16.83 33.0011V33.0011Z" fill="#34A853"/>
<path d="M7.56601 19.663C6.87485 17.6137 6.87485 15.3947 7.56601 13.3455V9.09546H2.08521C-0.255046 13.7578 -0.255046 19.2507 2.08521 23.913L7.56601 19.663V19.663Z" fill="#FBBC04"/>
<path d="M16.83 6.53078C19.1824 6.49441 21.4559 7.37958 23.1596 9.00442L27.8704 4.2936C24.8875 1.49257 20.9285 -0.0473908 16.83 0.00111192C10.5913 0.00111192 4.8862 3.51756 2.08517 9.09536L7.56598 13.3454C8.86948 9.43488 12.5254 6.53078 16.83 6.53078V6.53078Z" fill="#EA4335"/>
</g>
<defs>
<clipPath id="clip0">
<rect width="33" height="33" fill="white"/>
</clipPath>
</defs>
</svg>
