<svg width="33" height="33" viewBox="0 0 33 33" fill="none" xmlns="http://www.w3.org/2000/svg">
<path d="M21.56 0C30.8 0 33 2.2 33 11.44V21.56C33 30.8 30.8 33 21.56 33H11.44C2.2 33 0 30.8 0 21.56V11.44C0 2.2 2.2 0 11.44 0H21.56Z" fill="#4680C2"/>
<path d="M8.59362 10.3125H6.18737C5.49987 10.3125 5.36237 10.6361 5.36237 10.993C5.36237 11.6304 6.17814 14.7914 9.16074 18.9722C11.1491 21.8273 13.9506 23.375 16.4999 23.375C18.0294 23.375 18.2186 23.0313 18.2186 22.4391V20.2813C18.2186 19.5938 18.3635 19.4565 18.8479 19.4565C19.2048 19.4565 19.8166 19.635 21.2442 21.0116C22.8757 22.6431 23.1447 23.375 24.0624 23.375H26.4686C27.1561 23.375 27.4999 23.0313 27.3016 22.3529C27.0846 21.6768 26.3056 20.6958 25.272 19.533C24.7111 18.8702 23.8699 18.1565 23.615 17.7995C23.2581 17.3407 23.3601 17.1367 23.615 16.7289L23.6578 16.6681C24.0204 16.1528 26.5685 12.4989 26.8525 11.197C27.0054 10.6871 26.8525 10.3125 26.1249 10.3125H23.7186C23.1068 10.3125 22.8247 10.6361 22.6718 10.993C22.6718 10.993 21.4481 13.9757 19.7146 15.9131C19.1538 16.4739 18.8988 16.6523 18.5929 16.6523C18.44 16.6523 18.2186 16.4739 18.2186 15.9641V11.197C18.2186 10.5852 18.041 10.3125 17.5311 10.3125H13.7499C13.3675 10.3125 13.1376 10.5965 13.1376 10.8656C13.1376 11.4456 14.0043 11.5793 14.0936 13.2109V16.7544C14.0936 17.5313 13.9533 17.6721 13.6474 17.6721C12.8317 17.6721 10.8474 14.6761 9.67055 11.248C9.43992 10.5817 9.20859 10.3125 8.59362 10.3125Z" fill="white"/>
</svg>
